<svg viewBox="0 0 250 250" xmlns="http://www.w3.org/2000/svg"><circle cx="125" cy="125" fill="#fff" r="122.5"/><path d="m78 56.9a7.27 7.27 0 0 1 3.33 1.48 3.43 3.43 0 0 1 1.23 2.34q.12 1.35.12 3.33v47.61q13.74 5.79 27.26 10.85c1.32-.1 2.64-.19 4-.25q4.8-.26 9-.25 24.66 0 36.5 9.37a28.65 28.65 0 0 1 7.76 9.53q13.07 3.51 25.88 6.28a35.45 35.45 0 0 0 -9-17.9q-9.88-10.48-29.08-15.42 13.32-5.67 20.35-13.32t7-17q0-18.73-15.05-27.87t-41.93-9.12q-3.94 0-17.75.61t-37.01 1.83l-14.55.74v4.69l15.54 1.48q4.19.5 6.4.99zm26.14-1.73a76 76 0 0 1 18.51-2.17q18.25 0 28 7.28t9.74 22.07a34.87 34.87 0 0 1 -2.59 13.57 30.11 30.11 0 0 1 -7.4 10.6 34.34 34.34 0 0 1 -11.47 6.91 41.69 41.69 0 0 1 -14.55 2.46q-16.27 0-20.23-.74zm67.1 105.33q11 2.85 21.76 5.18a34.86 34.86 0 0 0 .84-5.73q-11.35-2.37-22.89-5.3c.18 1.86.29 3.8.29 5.84zm-67.09-27q-10.66-4-21.46-8.47v5.13q10.8 4.54 21.46 8.64zm0 18.5q-10.66-4-21.46-8.46v6q10.8 4.46 21.46 8.46zm61.93 26q9.06 2.4 18 4.45a45.86 45.86 0 0 0 3.92-5.25q-9.53-2.1-19.18-4.59c-.21.53-.44 1-.68 1.56a36.5 36.5 0 0 1 -2.06 3.83zm-3.88 19.53a67.87 67.87 0 0 0 10.2-5.23q-7.86-2-15.8-4.14a44.13 44.13 0 0 1 -8.9 5.14q7.3 2.23 14.5 4.23zm-58.05-19.78v-6.55q-10.66-3.94-21.46-8.3v6.73q10.82 4.55 21.49 8.64c-.01-.17-.03-.34-.03-.52zm-17.31 25.43q-8-3.27-16.15-6.77l-11.92 2.31v4.44h28.08zm-4.15-20.18a31.48 31.48 0 0 1 -.41 5q20.16 8.51 39.86 15.44h6.17a89.93 89.93 0 0 0 9.75-.18q-27.23-8.66-55.37-20.26z" fill="#333"/><path d="m82.29 188a9.94 9.94 0 0 1 -1.57 4.23q-2 2.59-6.66 3.58l-3.37.65q8.11 3.51 16.15 6.77 7.83 0 15.59.1 9.78.09 19.72.11-19.7-6.99-39.86-15.44z" fill="#ff1f4c"/><path d="m147.69 193.3-.5.24a37.48 37.48 0 0 1 -14.67 3q-28 0-28.34-18.23-10.68-4.1-21.49-8.64v13.33q28.14 11.61 55.41 20.24a77.23 77.23 0 0 0 15.75-2.79 79 79 0 0 0 8.36-2.91q-7.21-2.02-14.52-4.24z" fill="#a85163"/><path d="m174.82 190.7a50.84 50.84 0 0 0 9.28-8.29q-9-2.06-18-4.45a36.36 36.36 0 0 1 -6.43 7.68c-1 .89-2 1.72-3.06 2.52q7.95 2.19 15.81 4.14c.8-.52 1.58-1.05 2.4-1.6zm-70.67-19.5v-13.2q-10.65-4-21.46-8.47v13.37q10.8 4.37 21.46 8.3z" fill="#5c5863"/><path d="m189 175.65a35.08 35.08 0 0 0 4-10q-10.78-2.33-21.76-5.18a31.44 31.44 0 0 1 -2.4 12.11q9.66 2.5 19.18 4.59c.33-.48.67-.99.98-1.52zm-84.85-23.65v-13.2q-10.65-4.1-21.46-8.64v13.37q10.8 4.47 21.46 8.47z" fill="#b4dec1"/><path d="m193.93 156.54a48.83 48.83 0 0 0 -.86-9.34q-12.84-2.77-25.91-6.29a38.73 38.73 0 0 1 3.84 13.74q11.53 2.92 22.89 5.3c.03-1.12.11-2.26.04-3.41zm-89.78-23.04v-10.5q2.92-.3 5.8-.49-13.51-5.06-27.26-10.85v13.34q10.8 4.49 21.46 8.5z" fill="#cfffdd"/></svg>