<svg viewBox="0 0 706 136" xmlns="http://www.w3.org/2000/svg"><path d="m.15 11.4v-3.8l11.85-.6q18.8-1 30-1.5t14.35-.5q21.79 0 34 7.4t12.2 22.6a19.91 19.91 0 0 1 -5.7 13.8q-5.7 6.2-16.5 10.8 15.6 4 23.6 12.5t8 22.1a28.54 28.54 0 0 1 -4 15.5 39.18 39.18 0 0 1 -11.5 12.2 57.14 57.14 0 0 1 -17 7.9 65.45 65.45 0 0 1 -20.7 2.4q-10.61 0-21-.1t-21-.1h-14.4v-3.6l12.4-2.4a8.77 8.77 0 0 0 5.4-2.9q1.61-2.1 1.6-7.9v-96c0-1.07 0-2-.1-2.7a2.84 2.84 0 0 0 -1-1.9 6.06 6.06 0 0 0 -2.65-1.2c-1.2-.27-2.93-.53-5.2-.8zm39 49.2q3.2.6 16.4.6a33.79 33.79 0 0 0 11.8-2 27.68 27.68 0 0 0 9.3-5.6 24.46 24.46 0 0 0 6-8.6 28.12 28.12 0 0 0 2.1-11q0-12-7.9-17.9t-22.7-5.9a61.62 61.62 0 0 0 -15 1.8zm0 6.4v44.4q0 15.19 23 15.2a30.38 30.38 0 0 0 11.9-2.4 35.05 35.05 0 0 0 10.1-6.4 29.61 29.61 0 0 0 6.9-9.3 25.65 25.65 0 0 0 2.5-11.1q0-16-9.6-23.6t-29.6-7.6q-3.41 0-7.3.2t-7.9.6zm86.43 65.8v-3.2l9.6-1.8q4-1 5.1-3c.74-1.33 1.1-3.73 1.1-7.2v-38.4c0-2.67-.56-4.6-1.7-5.8s-3.63-2.2-7.5-3l-5.18-1.2.4-3a52.06 52.06 0 0 0 13.4-6.5q5.61-3.9 9.8-12.1h3.6q.4 5.4.6 11.6t.2 13.2a60 60 0 0 1 4.5-6.9 55.53 55.53 0 0 1 6.1-6.7q6.81-6.6 12.2-6.6 5 0 7.8 2.8a9.74 9.74 0 0 1 2.8 7.2 8.48 8.48 0 0 1 -2.3 6.3 7.74 7.74 0 0 1 -5.7 2.3 14.44 14.44 0 0 1 -7-2 13.32 13.32 0 0 0 -6.2-2 6.11 6.11 0 0 0 -4.1 2 25.78 25.78 0 0 0 -3.9 4.8 32.74 32.74 0 0 0 -3 5.9 14.89 14.89 0 0 0 -1.2 5.1v33.4q0 5.2 1.7 6.9c1.14 1.13 3.57 2 7.3 2.5l14.4 2.2v3.2q-5.19-.41-11.7-.6t-13.9-.2h-2.8q-7 0-13.1.2t-11.32.6zm116.64 0q-3.21-.41-8.7-.6t-13.52-.2q-8 0-13.5.2t-8.7.6v-3.4l10.8-2.2q6.19-1.2 6.2-7.2v-39.8q0-4.8-2.4-7t-9.6-3.8v-3a44.32 44.32 0 0 0 12.7-5.4 28.66 28.66 0 0 0 9.1-9h3.4v68.6a8.34 8.34 0 0 0 .9 4.4 5.38 5.38 0 0 0 3.5 2l9.8 2.4zm-21.8-122.2a9.21 9.21 0 0 1 6.6 2.7 8.73 8.73 0 0 1 2.8 6.5 7.86 7.86 0 0 1 -2.9 6 10 10 0 0 1 -6.9 2.6 8.54 8.54 0 0 1 -8.6-8.6 8.87 8.87 0 0 1 2.7-6.5 8.63 8.63 0 0 1 6.3-2.7zm76 122c-3.2-.13-6.73-.27-10.6-.4s-7.8-.2-11.8-.2-7.93.07-11.8.2-7.4.27-10.6.4v-3.4l12-2.4a7.57 7.57 0 0 0 3.6-1.6c.67-.67 1-2 1-4v-101.2q0-4.2-2.4-6.2t-10.6-4.4v-2.8q3.79-.79 9.6-2.4a112.33 112.33 0 0 0 12.23-4.2h4.6v120.8c0 2.53.27 4.17.8 4.9s1.8 1.3 3.8 1.7l10.2 1.8zm54.23 0c-3.2-.13-6.73-.27-10.6-.4s-7.8-.2-11.8-.2-7.93.07-11.8.2-7.4.27-10.6.4v-3.4l12-2.4a7.47 7.47 0 0 0 3.6-1.6c.67-.67 1-2 1-4v-101.2q0-4.2-2.4-6.2t-10.6-4.4v-2.8q3.81-.79 9.6-2.4a111.6 111.6 0 0 0 12.23-4.2h4.6v120.8c0 2.53.27 4.17.8 4.9s1.8 1.3 3.8 1.7l10.2 1.8zm44.84 1.6a33.68 33.68 0 0 1 -14.4-2.9 27.93 27.93 0 0 1 -10.2-7.9 33.91 33.91 0 0 1 -6-11.8 51.26 51.26 0 0 1 -2-14.6 45.64 45.64 0 0 1 3.6-18.7 40.75 40.75 0 0 1 9.4-13.5 40.14 40.14 0 0 1 13.11-8.2 41.18 41.18 0 0 1 14.9-2.8 31.21 31.21 0 0 1 7.3.8 59.2 59.2 0 0 1 6.1 1.8 45.35 45.35 0 0 1 5.8 2.4l11.2-5.8 1.8.6q0 15.6.1 31.1t.1 31.1q0 8 6.8 7.6a5.9 5.9 0 0 0 2.6-.5c.66-.33 1.33-.7 2-1.1a9.23 9.23 0 0 1 1.8-1.4l2 1.2a25.33 25.33 0 0 1 -3.6 6.4 21.41 21.41 0 0 1 -5 4.3 12.79 12.79 0 0 1 -7 1.9q-6.81 0-9.6-4.3t-2.8-11.9v-6a36.81 36.81 0 0 1 -3.5 8.2 29.66 29.66 0 0 1 -5.7 7.1 27.24 27.24 0 0 1 -8 5 28.13 28.13 0 0 1 -10.78 1.9zm28-44.2a64.77 64.77 0 0 0 -1.1-12.4 26.18 26.18 0 0 0 -3.7-9.5 17.64 17.64 0 0 0 -6.7-6 22.51 22.51 0 0 0 -10.3-2.1 26.26 26.26 0 0 0 -8.9 1.7 22.38 22.38 0 0 0 -8.5 5.6 30.69 30.69 0 0 0 -6.3 10 38.69 38.69 0 0 0 -2.5 14.7 46.84 46.84 0 0 0 1.7 12.7 34.81 34.81 0 0 0 4.9 10.7 24.53 24.53 0 0 0 7.8 7.3 20.53 20.53 0 0 0 10.6 2.7 17.33 17.33 0 0 0 8.9-2.4 22.55 22.55 0 0 0 7.1-6.7 38.57 38.57 0 0 0 4.9-10.1 45 45 0 0 0 2.1-12.6zm134 42.6a371.31 371.31 0 0 0 -42.2 0v-3.4l10.6-1.6q4.39-.6 4.4-7.8v-33.8q0-11-3.6-17.5t-14.14-6.5q-12.19 0-24.2 12v48q0 3.19 4.8 4.4l11.2 2.8v3.4c-2-.13-4.23-.27-6.7-.4s-5.37-.2-8.7-.2h-6.6q-7 0-12.5.1c-3.67.07-6.7.23-9.1.5v-3.4l10.4-2q4-.6 4-6v-39.6q0-6.19-2.5-8.4t-8.9-3.2v-3.6a31.64 31.64 0 0 0 11.9-5.9 34.08 34.08 0 0 0 9.35-11.9h3.4v18.2a62.14 62.14 0 0 1 16.5-10.7q8.89-3.9 15.9-3.9 23.2 0 23.2 27.4v39.6a13.28 13.28 0 0 0 1 5.8 5.28 5.28 0 0 0 4 2.6l8.6 1.6zm35.83-97h2.68c0 3.6 0 7.17.1 10.7s.1 7.1.1 10.7l26.8-.6v7.4l-26.8.8v40.2q0 11.81 1.7 17.6t9.5 5.4a22.09 22.09 0 0 0 6.9-1.3 47.37 47.37 0 0 0 8.7-4.1l1.8 2.8a27 27 0 0 1 -9.7 7.4q-5.7 2.6-15.7 2.6a24.44 24.44 0 0 1 -8.4-1.2 11 11 0 0 1 -5.2-4 17.49 17.49 0 0 1 -2.7-7.7 90.6 90.6 0 0 1 -.7-12.3v-45c-1.86 0-3.66 0-5.4.1s-3.53.1-5.4.1-2.8-.53-2.8-1.6.87-2 2.6-2.8q8.6-3.8 12.6-8.2a42.48 42.48 0 0 0 4.6-6.5 57 57 0 0 0 4.78-10.5zm110.5 46.6h-55a51.34 51.34 0 0 0 -.6 7.6q0 15.4 8.2 24.9t22.6 9.5a30 30 0 0 0 12.8-2.7 50 50 0 0 0 12.6-9.1l.8 4.6a46.57 46.57 0 0 1 -15.7 13.6 44.47 44.47 0 0 1 -20.7 4.6 30.54 30.54 0 0 1 -13.7-3.1 33.72 33.72 0 0 1 -11-8.7 40.85 40.85 0 0 1 -7.3-13.1 49.26 49.26 0 0 1 -2.6-16.3 46.25 46.25 0 0 1 2.9-16.5 39.93 39.93 0 0 1 8.1-13.3 37.43 37.43 0 0 1 12.4-8.8 38 38 0 0 1 15.6-3.2 32.24 32.24 0 0 1 12.1 2.2 28.87 28.87 0 0 1 9.5 6.1 28.08 28.08 0 0 1 6.3 9.5 38.09 38.09 0 0 1 2.7 12.2zm-54-4.6h29c2 0 3.73 0 5.2-.1a9 9 0 0 0 3.6-.8 3 3 0 0 0 1.7-2.1 9.82 9.82 0 0 0 -.3-4 21.35 21.35 0 0 0 -4.9-9.4q-3.71-4.2-11.3-4.2a21.34 21.34 0 0 0 -15 5.5q-6 5.5-8 15.1z" fill="#333"/><path d="m375.52 92c0-1.33.05-2.62.14-3.86q-6.42 3.42-12.71 7.19v1.67a53.86 53.86 0 0 0 .82 9.57q6.11-3.81 12.34-7.27a48.7 48.7 0 0 1 -.59-7.3zm159.18-36.06q-12.41-.94-24.47-.94h-2.75c-.86.34-1.74.69-2.63 1.08a61.62 61.62 0 0 0 -15.25 9.62q5.2-.36 10.46-.54a27.22 27.22 0 0 1 12.49-3.16c5 0 8.86 1.12 11.53 3.32q9 .41 18.09 1.31a19.77 19.77 0 0 0 -7.47-10.69zm37.03 4.7-.35.16c-1.73.8-2.6 1.73-2.6 2.8s.94 1.6 2.8 1.6 3.67 0 5.4-.1 3.54-.1 5.4-.1v7.88q6.86 1.44 13.8 3.13v-10.28q-12.36-2.96-24.45-5.09zm65.39 16.86a44.49 44.49 0 0 0 -2.44 9.7q6.75 2.26 13.58 4.77v-2.17a51.34 51.34 0 0 1 .6-7.6h1.85q-6.81-2.48-13.54-4.72zm67.88 38.39-.6-3.49c-.84.79-1.66 1.51-2.47 2.22l1.89.89a5.07 5.07 0 0 0 1.18.38zm-268.85-51.51q-8.43 2.22-16.71 5a27 27 0 0 1 3 8.26c.07.4.13.82.2 1.23q6.72-2.23 13.56-4.1zm-100.27 56.42v-7.67q-6.61 4.28-13.4 8.14c0 2-.34 3.27-1 3.93a7.47 7.47 0 0 1 -3.6 1.6l-9.23 1.85-2.77 1.35v2.61c3.2-.13 6.74-.27 10.6-.4q3.58-.12 7.23-.16 6.35-3.49 12.55-7.32a15.36 15.36 0 0 1 -.38-3.93zm-314.46-1.13a8.13 8.13 0 0 1 -1.27 3.43 8.77 8.77 0 0 1 -5.4 2.9l-2.74.53q6.58 2.85 13.1 5.49 6.36 0 12.64.08 7.94.08 16 .09-15.97-5.62-32.33-12.52zm466.93-63.89q-4.31.31-8.58.75a29 29 0 0 1 -4.12 4 31.64 31.64 0 0 1 -11.9 5.9v2.33q12.13-2 24.6-2.92z" fill="#ff1f4c"/><path d="m488.35 48.6h-3.35c-.45.91-.93 1.77-1.42 2.61 1.6-.15 3.21-.28 4.82-.4zm-52.23 5-1.8-.6-11.2 5.8a45.35 45.35 0 0 0 -5.8-2.4c-.65-.23-1.31-.45-2-.66-3.89 1.36-7.75 2.79-11.59 4.33a20.84 20.84 0 0 1 8.29 2 17.6 17.6 0 0 1 4.85 3.7q9.51-3.39 19.27-6.06c-.01-2.02-.02-4.06-.02-6.11zm217.19 14.57c-2.94-1.08-5.88-2.14-8.8-3.17a39.22 39.22 0 0 0 -5.71 8.6q5.49 1.91 11 3.94a31.82 31.82 0 0 1 3.51-9.37zm-30.31-10.17q-2.47-.75-5-1.47l-21.82.47c0-2.11 0-4.19-.06-6.28q-4.57-1.09-9.14-2.09a33.82 33.82 0 0 1 -3 4 26.44 26.44 0 0 1 -5.51 4.47q14.85 3 30.12 7.16l14.41-.46zm-246.9 26.29a31.74 31.74 0 0 1 1.92-7 33.81 33.81 0 0 1 4.23-7.58q-7.94 4-15.69 8.49v.09a42.62 42.62 0 0 0 -3.43 13.71q6.42-4.07 12.97-7.71zm-301.64 39.71-.41.19a30.38 30.38 0 0 1 -11.9 2.4q-22.66 0-23-14.78-8.66-3.31-17.42-7v10.84q22.83 9.42 44.93 16.41a62.69 62.69 0 0 0 12.78-2.26 64.29 64.29 0 0 0 6.78-2.36q-5.86-1.62-11.76-3.44zm575.54-46.4q6 2.2 12 4.6h26q-5.38-2.37-10.73-4.6zm-353.55 51.6-10.2-1.8c-2-.4-3.27-1-3.8-1.7a2.79 2.79 0 0 1 -.3-.6q-11 4.08-22.38 7.19l2.48-.09q5.81-.19 11.8-.2t11.8.2l5.25.19q2.68-1.06 5.35-2.17zm26.03-22.93v11.45q6.78-3.69 13.4-7.78v-11.81q-6.61 4.28-13.4 8.14z" fill="#a85163"/><path d="m689 70.6a9.82 9.82 0 0 1 .3 4 3 3 0 0 1 -1.7 2.1c-.16.08-.34.15-.52.22q5.86 2.56 11.76 5.28h5a39.34 39.34 0 0 0 -1.74-9.53q-7.35-3.37-14.65-6.52a21.06 21.06 0 0 1 1.55 4.45zm-92.92-24.83c-.08-3.36-.08-6.77-.08-10.17h-2.6a62.16 62.16 0 0 1 -3.76 8.67q3.21.73 6.44 1.5zm-273.6 44.23v11.39q6.78-3.61 13.4-7.63v-11.76q-6.61 4.2-13.4 8zm66.52-33.4a40.14 40.14 0 0 0 -13.1 8.2 38 38 0 0 0 -6.07 7.31 275.56 275.56 0 0 1 37.61-18.11 33.29 33.29 0 0 0 -3.52-.18 41.18 41.18 0 0 0 -14.92 2.78zm268.82 5.9a20.23 20.23 0 0 1 9-4.8c-2.57-1-5.13-2-7.69-2.93-.51.2-1 .41-1.52.63a37.63 37.63 0 0 0 -9.48 6c2.64.94 5.28 1.91 7.94 2.91a21.13 21.13 0 0 1 1.75-1.81zm-415.6 66.9-9.8-2.4a5.38 5.38 0 0 1 -3.5-2 6.66 6.66 0 0 1 -.85-3q-7 1-14.06 1.68c-.95 1.83-2.74 3-5.39 3.53l-10.8 2.2v3.4q3.19-.41 8.7-.6t13.48-.21c3 0 5.72 0 8.19.06 4.71-.66 9.37-1.43 14-2.31zm-145.77-7.5a41.35 41.35 0 0 0 7.52-6.72q-7.25-1.67-14.6-3.61a30 30 0 0 1 -5.22 6.23c-.79.72-1.62 1.4-2.48 2q6.45 1.78 12.82 3.36c.67-.38 1.32-.81 1.96-1.26zm43.83 2.9q-1.09 2-5.1 3l-9.6 1.8v.1q8.05 1.37 16 2.38c2.7-.05 5.5-.08 8.43-.08h2.8q7.41 0 13.9.2t11.7.6v-3.2l-14.41-2.2c-3.73-.53-6.16-1.37-7.3-2.5a4.36 4.36 0 0 1 -.84-1.3c-4.87-.45-9.78-1-14.73-1.65a8.75 8.75 0 0 1 -.85 2.85zm127.97-11.74v8.14a11.31 11.31 0 0 1 -.22 2.37q6.87-2 13.62-4.34v-10.61q-6.65 2.38-13.4 4.44zm-229.1-6.97v-10.68q-8.64-3.25-17.4-6.86v10.8q8.74 3.56 17.4 6.74z" fill="#5c5863"/><path d="m322.48 74.27v11.45q6.78-3.69 13.4-7.78v-11.81q-6.61 4.28-13.4 8.14zm362.84-19.87a32.24 32.24 0 0 0 -12.1-2.2 42.39 42.39 0 0 0 -5.34.35q15.54 6.33 31.42 13.81a26.84 26.84 0 0 0 -4.48-5.86 28.87 28.87 0 0 0 -9.5-6.1zm-417.07 43.41v10.46q6.75-2 13.4-4.35v-10.64q-6.65 2.45-13.4 4.53zm-113.25 20.19v-9.51c-4.5-.44-9-.95-13.6-1.57v10.08q6.85.9 13.61 1.53c-.01-.18-.01-.35-.01-.53zm-47-8.3a28.48 28.48 0 0 0 3.25-8.09q-8.76-1.87-17.65-4.2a25.63 25.63 0 0 1 -1.94 9.82q7.83 2 15.55 3.73c.22-.42.49-.83.79-1.26zm106.82-1.14v10q6.65-.56 13.18-1.56v-10.1q-6.53 1.01-13.18 1.66zm-175.67-18.05v-10.7q-8.64-3.32-17.4-7v10.84q8.74 3.62 17.4 6.86z" fill="#b4dec1"/><path d="m112 94.2a39.73 39.73 0 0 0 -.7-7.57q-10.41-2.25-21-5.1a31.42 31.42 0 0 1 3.07 11.13q9.3 2.34 18.51 4.34c.06-.94.12-1.86.12-2.8zm156.25-11.39v10.46q6.75-2 13.4-4.35v-10.64q-6.65 2.44-13.4 4.53zm54.23-23.54v11.45q6.78-3.69 13.4-7.78v-11.81q-6.61 4.27-13.4 8.14zm-107.66 34.29v10q6.65-.56 13.18-1.56v-10.07q-6.53.98-13.18 1.63zm-175.67-18.05v-8.51c1.58-.16 3.14-.29 4.7-.4q-11-4.09-22.1-8.79v10.84q8.74 3.62 17.4 6.86zm102.23 16.41v10.08q6.85.9 13.6 1.53v-10c-4.5-.48-8.98-.99-13.6-1.61z" fill="#cfffdd"/></svg>